# Blender v2.68 (sub 0) OBJ File: 'cube.blend'
# www.blender.org
mtllib cubeLighting.mtl
o Cube
v 0.151963 -0.151963 -0.151963
v 0.151963 -0.151963 0.151963
v -0.151963 -0.151963 0.151963
v -0.151963 -0.151963 -0.151963
v 0.151963 0.151963 -0.151963
v 0.151963 0.151963 0.151963
v -0.151963 0.151963 0.151963
v -0.151963 0.151963 -0.151963
vn 0.577349 -0.577349 -0.577349
vn 0.577349 -0.577349 0.577349
vn -0.577349 -0.577349 -0.577349
vn 0.577349 0.577349 -0.577349
vn -0.577349 0.577349 -0.577349
vn 0.577349 0.577349 0.577349
vn -0.577349 -0.577349 0.577349
vn -0.577349 0.577349 0.577349
g Cube_Cube_Material
usemtl Material
s 1
f 1//1 2//2 4//3
f 5//4 8//5 6//6
f 1//1 5//4 2//2
f 2//2 6//6 3//7
f 3//7 7//8 4//3
f 5//4 1//1 8//5
f 2//2 3//7 4//3
f 8//5 7//8 6//6
f 5//4 6//6 2//2
f 6//6 7//8 3//7
f 7//8 8//5 4//3
f 1//1 4//3 8//5
